<svg id="Capa_1" enable-background="new 0 0 510 510" height="512" viewBox="0 0 510 510" width="512" xmlns="http://www.w3.org/2000/svg"><g><path d="m510 217.5c0-36.491-26.196-66.98-60.771-73.646-6.794-59.769-57.673-106.354-119.229-106.354-39.795 0-75.223 19.42-97.062 49.438-17.274-47.932-62.578-79.438-112.938-79.438-66.168 0-120 53.832-120 120 0 44.894 24.701 84.224 61.469 104.775 6.882 34.303 37.232 60.225 73.531 60.225h300c41.355 0 75-33.645 75-75zm-447.143-20.493c-20.437-16.888-32.857-42.368-32.857-69.507 0-49.626 40.374-90 90-90 33.128 0 62.441 17.643 78.097 45.071-38.007-1.55-70.179 25.381-76.836 61.19-28.07 5.218-50.688 26.127-58.404 53.246zm372.143 65.493h-300c-24.814 0-45-20.186-45-45s20.186-45 45-45h15v-15c0-38.718 46.124-59.354 74.982-33.546l14.99 13.408 8.577-18.19c14.802-31.39 46.773-51.672 81.451-51.672 49.626 0 90 40.374 90 90v15h15c24.813 0 45 20.186 45 45s-20.187 45-45 45z"/><path d="m0 322.5h30v30h-30z"/><path d="m90 322.5h30v30h-30z"/><path d="m180 322.5h30v30h-30z"/><path d="m270 322.5h30v30h-30z"/><path d="m360 322.5h30v30h-30z"/><path d="m450 322.5h30v30h-30z"/><path d="m30 397.5h30v30h-30z"/><path d="m120 397.5h30v30h-30z"/><path d="m210 397.5h30v30h-30z"/><path d="m300 397.5h30v30h-30z"/><path d="m390 397.5h30v30h-30z"/><path d="m480 397.5h30v30h-30z"/><path d="m0 472.5h30v30h-30z"/><path d="m90 472.5h30v30h-30z"/><path d="m180 472.5h30v30h-30z"/><path d="m270 472.5h30v30h-30z"/><path d="m360 472.5h30v30h-30z"/><path d="m450 472.5h30v30h-30z"/></g></svg>