<svg id="Layer_1" enable-background="new 0 0 511.73 511.73" height="512" viewBox="0 0 511.73 511.73" width="512" xmlns="http://www.w3.org/2000/svg"><g><path d="m448.453 128.263c-.358 0-.716.003-1.074.009 1.416-51.138-49.066-90.968-98.435-78.003-42.836-67.076-143.833-66.974-186.575 0-49.378-12.962-99.855 26.859-98.442 78.003-84.362 1.818-85.541 123.08-1.073 126.392-.001 0 385.599 0 385.599 0 34.849 0 63.2-28.352 63.2-63.2s-28.351-63.201-63.2-63.201zm0 96.4h-385.6c-18.307 0-33.2-14.894-33.2-33.2-.479-23.419 25.26-40.193 46.476-30.431 5.429 2.383 11.755 1.345 16.137-2.654 4.382-3.996 5.997-10.199 4.122-15.826-13.37-40.164 28.094-77.702 66.734-60.404 7.354 3.278 15.986.168 19.555-7.05 28.728-60.089 117.236-60.097 145.962.001 3.569 7.216 12.201 10.328 19.555 7.048 38.579-17.302 80.12 20.244 66.733 60.405-4.161 12.2 8.509 23.726 20.26 18.479 4.184-1.837 8.648-2.768 13.267-2.768 43.86 1.602 44.08 64.704-.001 66.4z"/><path d="m109.878 351.062h11.12c8.284 0 15-6.716 15-15s-6.716-15-15-15h-11.12l5.562-9.633c4.142-7.174 1.684-16.348-5.49-20.49-7.175-4.145-16.348-1.685-20.49 5.49l-5.563 9.635-5.563-9.635c-4.142-7.174-13.315-9.631-20.491-5.49-7.174 4.143-9.632 13.316-5.49 20.49l5.562 9.633h-11.129c-8.284 0-15 6.716-15 15s6.716 15 15 15h11.129l-5.562 9.633c-4.142 7.174-1.684 16.348 5.49 20.49 7.176 4.141 16.349 1.684 20.491-5.49l5.563-9.635 5.563 9.635c4.142 7.175 13.315 9.635 20.49 5.49 7.174-4.143 9.632-13.316 5.49-20.49z"/><path d="m281.638 351.062h11.12c8.284 0 15-6.716 15-15s-6.716-15-15-15h-11.12l5.562-9.633c4.142-7.174 1.684-16.348-5.49-20.49-7.175-4.145-16.348-1.685-20.49 5.49l-5.563 9.635-5.563-9.635c-4.142-7.174-13.315-9.631-20.491-5.49-7.174 4.143-9.632 13.316-5.49 20.49l5.562 9.633h-11.129c-8.284 0-15 6.716-15 15s6.716 15 15 15h11.129l-5.562 9.633c-4.142 7.174-1.684 16.348 5.49 20.49 7.176 4.141 16.349 1.684 20.491-5.49l5.563-9.635 5.563 9.635c4.142 7.175 13.315 9.635 20.49 5.49 7.174-4.143 9.632-13.316 5.49-20.49z"/><path d="m464.52 321.062h-11.12l5.562-9.633c4.142-7.174 1.684-16.348-5.49-20.49-7.175-4.145-16.348-1.685-20.49 5.49l-5.563 9.635-5.563-9.635c-4.142-7.174-13.315-9.631-20.491-5.49-7.174 4.143-9.632 13.316-5.49 20.49l5.562 9.633h-11.129c-8.284 0-15 6.716-15 15s6.716 15 15 15h11.129l-5.562 9.633c-4.142 7.174-1.684 16.348 5.49 20.49 7.176 4.141 16.349 1.684 20.491-5.49l5.563-9.635 5.563 9.635c4.142 7.175 13.315 9.635 20.49 5.49 7.174-4.143 9.632-13.316 5.49-20.49l-5.562-9.633h11.12c19.877-.735 19.869-29.268 0-30z"/><path d="m206.878 449.593h-11.12l5.562-9.633c4.142-7.174 1.684-16.348-5.49-20.49-7.175-4.145-16.348-1.685-20.49 5.49l-5.563 9.634-5.563-9.634c-4.142-7.174-13.315-9.631-20.491-5.49-7.174 4.143-9.632 13.316-5.49 20.49l5.562 9.633h-11.129c-8.284 0-15 6.716-15 15s6.716 15 15 15h11.129l-5.562 9.633c-4.142 7.174-1.684 16.348 5.49 20.49 7.176 4.141 16.349 1.684 20.491-5.49l5.563-9.635 5.563 9.635c4.142 7.175 13.315 9.635 20.49 5.49 7.174-4.143 9.632-13.316 5.49-20.49l-5.562-9.633h11.12c19.877-.735 19.869-29.268 0-30z"/><path d="m378.64 449.593h-11.12l5.562-9.633c4.142-7.174 1.684-16.348-5.49-20.49-7.175-4.145-16.348-1.685-20.49 5.49l-5.563 9.634-5.563-9.634c-4.142-7.174-13.315-9.631-20.491-5.49-7.174 4.143-9.632 13.316-5.49 20.49l5.562 9.633h-11.129c-8.284 0-15 6.716-15 15s6.716 15 15 15h11.129l-5.562 9.633c-4.142 7.174-1.684 16.348 5.49 20.49 7.176 4.141 16.349 1.684 20.491-5.49l5.563-9.635 5.563 9.635c4.142 7.175 13.315 9.635 20.49 5.49 7.174-4.143 9.632-13.316 5.49-20.49l-5.562-9.633h11.12c19.877-.735 19.869-29.268 0-30z"/></g></svg>